<?xml version="1.0" standalone="no"?>
<!DOCTYPE svg PUBLIC "-//W3C//DTD SVG 20010904//EN"
 "http://www.w3.org/TR/2001/REC-SVG-20010904/DTD/svg10.dtd">
<svg version="1.0" xmlns="http://www.w3.org/2000/svg"
 width="506.000000pt" height="479.000000pt" viewBox="0 0 506.000000 479.000000"
 preserveAspectRatio="xMidYMid meet">

<g transform="translate(0.000000,479.000000) scale(0.100000,-0.100000)"
fill="#000000" stroke="none">
<path d="M1495 3118 c13 -40 47 -149 75 -243 28 -93 71 -233 95 -310 24 -77
55 -183 70 -235 53 -191 107 -377 124 -425 26 -77 61 -186 78 -242 l18 -63
233 0 c255 0 242 -4 216 65 -8 22 -19 60 -24 85 -11 46 -35 129 -76 259 -13
40 -21 78 -17 84 3 5 1 7 -4 4 -9 -6 -24 43 -27 89 -1 6 -8 28 -17 50 -28 69
-39 107 -32 117 3 6 1 7 -4 4 -7 -4 -20 22 -33 66 -44 141 -73 232 -85 267 -7
19 -16 55 -20 80 -4 25 -16 72 -26 105 -25 78 -44 140 -59 195 -7 25 -19 62
-28 83 l-15 37 -233 0 -233 0 24 -72z"/>
<path d="M2140 3176 c0 -7 11 -49 25 -92 14 -44 32 -104 41 -134 9 -30 22 -71
29 -90 7 -19 23 -73 35 -120 26 -104 68 -251 87 -306 8 -23 14 -47 12 -55 -1
-8 0 -21 4 -29 18 -47 53 -156 74 -230 39 -139 40 -143 63 -200 12 -30 25 -68
30 -85 5 -16 13 -43 19 -60 6 -16 22 -61 35 -100 l24 -70 232 -3 232 -2 -7 27
c-4 16 -8 42 -9 60 0 17 -4 29 -8 26 -5 -2 -8 -3 -8 -1 0 2 -9 28 -20 58 -23
61 -39 120 -45 165 -3 17 -11 48 -19 70 -17 49 -40 126 -42 140 0 6 -6 23 -13
39 -6 16 -9 36 -7 43 4 9 1 11 -6 7 -7 -5 -9 -2 -6 7 3 8 0 23 -8 34 -8 10
-14 27 -14 37 0 10 -9 35 -20 55 -11 21 -20 42 -20 48 0 6 -11 46 -25 90 -34
108 -52 170 -66 230 -6 28 -22 84 -34 125 -13 41 -28 95 -34 120 -6 25 -13 52
-15 60 -2 8 -7 29 -11 45 -4 17 -11 35 -15 40 -4 6 -10 22 -14 38 l-6 27 -235
0 c-193 0 -235 -2 -235 -14z"/>
<path d="M2955 2679 c-4 -6 -5 -12 -2 -15 2 -3 7 2 10 11 7 17 1 20 -8 4z"/>
</g>
</svg>
